#Comment line ignore any data following # character 
#Hierarchical Translation and Rotation (.htr) file 
[Header]	
#Header keywords are followed by a single value 
FileType HTR		#Single word string
DataType HTRS		#Translation followed by rotation and scale data
FileVersion 1		#integer
NumSegments 84		#integer
NumFrames 2		#integer
DataFrameRate 30		#integer, data frame rate in this file
EulerRotationOrder ZYX
CalibrationUnits mm
RotationUnits Degrees
GlobalAxisofGravity Y
BoneLengthAxis Y
ScaleFactor 1.00
[SegmentNames&Hierarchy]
#CHILD	PARENT
MASTER GLOBAL
root MASTER
chest root
L_mid_tent01 root
R_mid_tent01 root
spine01 root
Bip01_Neck chest
L_humerus chest
R_humerus chest
weapon_bone chest
Bip01_Head Bip01_Neck
eye_left_bone Bip01_Head
eye_right_bone Bip01_Head
L_forearm L_humerus
L_front_hand L_forearm
L_weapon_bone L_forearm
L_front_hand01_01 L_front_hand
L_front_hand02_01 L_front_hand
L_front_hand03_01 L_front_hand
L_front_hand01_02 L_front_hand01_01
L_front_hand02_02 L_front_hand02_01
L_front_hand03_02 L_front_hand03_01
R_forearm R_humerus
R_front_hand R_forearm
R_weapon_bone R_forearm
R_front_hand01_01 R_front_hand
R_front_hand02_01 R_front_hand
R_front_hand03_01 R_front_hand
R_front_hand01_02 R_front_hand01_01
R_front_hand02_02 R_front_hand02_01
R_front_hand03_02 R_front_hand03_01
null_rope01_connect L_mid_tent01
Rope1_Seg01 null_rope01_connect
Rope1_Seg02 Rope1_Seg01
Rope1_Seg03 Rope1_Seg02
Rope1_Seg04 Rope1_Seg03
Rope1_Seg05 Rope1_Seg04
Rope1_Seg06 Rope1_Seg05
Rope1_Seg07 Rope1_Seg06
Rope1_Seg09 Rope1_Seg07
L_mid_hand01 Rope1_Seg09
L_mid_hand02 Rope1_Seg09
L_mid_hand03 Rope1_Seg09
null_rope02_connect R_mid_tent01
Rope2_Seg01 null_rope02_connect
Rope2_Seg02 Rope2_Seg01
Rope2_Seg03 Rope2_Seg02
Rope2_Seg04 Rope2_Seg03
Rope2_Seg05 Rope2_Seg04
Rope2_Seg06 Rope2_Seg05
Rope2_Seg07 Rope2_Seg06
Rope2_Seg09 Rope2_Seg07
R_mid_hand01 Rope2_Seg09
R_mid_hand02 Rope2_Seg09
R_mid_hand03 Rope2_Seg09
spine02 spine01
spine03 spine02
pelvis spine03
null_rope03_connect pelvis
null_rope04_connect pelvis
Rope3_Seg01 null_rope03_connect
Rope3_Seg02 Rope3_Seg01
Rope3_Seg03 Rope3_Seg02
Rope3_Seg04 Rope3_Seg03
Rope3_Seg05 Rope3_Seg04
Rope3_Seg06 Rope3_Seg05
Rope3_Seg07 Rope3_Seg06
Rope3_Seg08 Rope3_Seg07
Rope3_Seg09 Rope3_Seg08
R_rear_hand01 Rope3_Seg09
R_rear_hand02 Rope3_Seg09
R_rear_hand03 Rope3_Seg09
Rope4_Seg01 null_rope04_connect
Rope4_Seg02 Rope4_Seg01
Rope4_Seg03 Rope4_Seg02
Rope4_Seg04 Rope4_Seg03
Rope4_Seg05 Rope4_Seg04
Rope4_Seg06 Rope4_Seg05
Rope4_Seg07 Rope4_Seg06
Rope4_Seg08 Rope4_Seg07
Rope4_Seg09 Rope4_Seg08
L_rear_hand01 Rope4_Seg09
L_rear_hand02 Rope4_Seg09
L_rear_hand03 Rope4_Seg09
[BasePosition]
#SegmentName Tx, Ty, Tz, Rx, Ry, Rz, BoneLength
MASTER 0.000000 0.000000 0.000000 -90.000000 0.000000 0.000000 10.000000 
root 0.000000 0.000000 0.000000 0.000000 0.000000 0.000000 10.000000 
chest 0.000000 0.000000 0.000000 0.000000 0.000000 0.000000 10.000000 
L_mid_tent01 0.000000 0.000000 0.000000 0.000000 0.000000 0.000000 10.000000 
R_mid_tent01 0.000000 0.000000 0.000000 0.000000 0.000000 0.000000 10.000000 
spine01 0.000000 0.000000 0.000000 0.000000 0.000000 0.000000 10.000000 
Bip01_Neck 0.000000 0.000000 0.000000 0.000000 0.000000 0.000000 10.000000 
L_humerus 0.000000 0.000000 0.000000 0.000000 0.000000 0.000000 10.000000 
R_humerus 0.000000 0.000000 0.000000 0.000000 0.000000 0.000000 10.000000 
weapon_bone 0.000000 0.000000 0.000000 0.000000 0.000000 0.000000 10.000000 
Bip01_Head 0.000000 0.000000 0.000000 0.000000 0.000000 0.000000 10.000000 
eye_left_bone 0.000000 0.000000 0.000000 0.000000 0.000000 0.000000 10.000000 
eye_right_bone 0.000000 0.000000 0.000000 0.000000 0.000000 0.000000 10.000000 
L_forearm 0.000000 0.000000 0.000000 0.000000 0.000000 0.000000 10.000000 
L_front_hand 0.000000 0.000000 0.000000 0.000000 0.000000 0.000000 10.000000 
L_weapon_bone 0.000000 0.000000 0.000000 0.000000 0.000000 0.000000 10.000000 
L_front_hand01_01 0.000000 0.000000 0.000000 0.000000 0.000000 0.000000 10.000000 
L_front_hand02_01 0.000000 0.000000 0.000000 0.000000 0.000000 0.000000 10.000000 
L_front_hand03_01 0.000000 0.000000 0.000000 0.000000 0.000000 0.000000 10.000000 
L_front_hand01_02 0.000000 0.000000 0.000000 0.000000 0.000000 0.000000 10.000000 
L_front_hand02_02 0.000000 0.000000 0.000000 0.000000 0.000000 0.000000 10.000000 
L_front_hand03_02 0.000000 0.000000 0.000000 0.000000 0.000000 0.000000 10.000000 
R_forearm 0.000000 0.000000 0.000000 0.000000 0.000000 0.000000 10.000000 
R_front_hand 0.000000 0.000000 0.000000 0.000000 0.000000 0.000000 10.000000 
R_weapon_bone 0.000000 0.000000 0.000000 0.000000 0.000000 0.000000 10.000000 
R_front_hand01_01 0.000000 0.000000 0.000000 0.000000 0.000000 0.000000 10.000000 
R_front_hand02_01 0.000000 0.000000 0.000000 0.000000 0.000000 0.000000 10.000000 
R_front_hand03_01 0.000000 0.000000 0.000000 0.000000 0.000000 0.000000 10.000000 
R_front_hand01_02 0.000000 0.000000 0.000000 0.000000 0.000000 0.000000 10.000000 
R_front_hand02_02 0.000000 0.000000 0.000000 0.000000 0.000000 0.000000 10.000000 
R_front_hand03_02 0.000000 0.000000 0.000000 0.000000 0.000000 0.000000 10.000000 
null_rope01_connect 0.000000 0.000000 0.000000 0.000000 0.000000 0.000000 10.000000 
Rope1_Seg01 0.000000 0.000000 0.000000 0.000000 0.000000 0.000000 10.000000 
Rope1_Seg02 0.000000 0.000000 0.000000 0.000000 0.000000 0.000000 10.000000 
Rope1_Seg03 0.000000 0.000000 0.000000 0.000000 0.000000 0.000000 10.000000 
Rope1_Seg04 0.000000 0.000000 0.000000 0.000000 0.000000 0.000000 10.000000 
Rope1_Seg05 0.000000 0.000000 0.000000 0.000000 0.000000 0.000000 10.000000 
Rope1_Seg06 0.000000 0.000000 0.000000 0.000000 0.000000 0.000000 10.000000 
Rope1_Seg07 0.000000 0.000000 0.000000 0.000000 0.000000 0.000000 10.000000 
Rope1_Seg09 0.000000 0.000000 0.000000 0.000000 0.000000 0.000000 10.000000 
L_mid_hand01 0.000000 0.000000 0.000000 0.000000 0.000000 0.000000 10.000000 
L_mid_hand02 0.000000 0.000000 0.000000 0.000000 0.000000 0.000000 10.000000 
L_mid_hand03 0.000000 0.000000 0.000000 0.000000 0.000000 0.000000 10.000000 
null_rope02_connect 0.000000 0.000000 0.000000 0.000000 0.000000 0.000000 10.000000 
Rope2_Seg01 0.000000 0.000000 0.000000 0.000000 0.000000 0.000000 10.000000 
Rope2_Seg02 0.000000 0.000000 0.000000 0.000000 0.000000 0.000000 10.000000 
Rope2_Seg03 0.000000 0.000000 0.000000 0.000000 0.000000 0.000000 10.000000 
Rope2_Seg04 0.000000 0.000000 0.000000 0.000000 0.000000 0.000000 10.000000 
Rope2_Seg05 0.000000 0.000000 0.000000 0.000000 0.000000 0.000000 10.000000 
Rope2_Seg06 0.000000 0.000000 0.000000 0.000000 0.000000 0.000000 10.000000 
Rope2_Seg07 0.000000 0.000000 0.000000 0.000000 0.000000 0.000000 10.000000 
Rope2_Seg09 0.000000 0.000000 0.000000 0.000000 0.000000 0.000000 10.000000 
R_mid_hand01 0.000000 0.000000 0.000000 0.000000 0.000000 0.000000 10.000000 
R_mid_hand02 0.000000 0.000000 0.000000 0.000000 0.000000 0.000000 10.000000 
R_mid_hand03 0.000000 0.000000 0.000000 0.000000 0.000000 0.000000 10.000000 
spine02 0.000000 0.000000 0.000000 0.000000 0.000000 0.000000 10.000000 
spine03 0.000000 0.000000 0.000000 0.000000 0.000000 0.000000 10.000000 
pelvis 0.000000 0.000000 0.000000 0.000000 0.000000 0.000000 10.000000 
null_rope03_connect 0.000000 0.000000 0.000000 0.000000 0.000000 0.000000 10.000000 
null_rope04_connect 0.000000 0.000000 0.000000 0.000000 0.000000 0.000000 10.000000 
Rope3_Seg01 0.000000 0.000000 0.000000 0.000000 0.000000 0.000000 10.000000 
Rope3_Seg02 0.000000 0.000000 0.000000 0.000000 0.000000 0.000000 10.000000 
Rope3_Seg03 0.000000 0.000000 0.000000 0.000000 0.000000 0.000000 10.000000 
Rope3_Seg04 0.000000 0.000000 0.000000 0.000000 0.000000 0.000000 10.000000 
Rope3_Seg05 0.000000 0.000000 0.000000 0.000000 0.000000 0.000000 10.000000 
Rope3_Seg06 0.000000 0.000000 0.000000 0.000000 0.000000 0.000000 10.000000 
Rope3_Seg07 0.000000 0.000000 0.000000 0.000000 0.000000 0.000000 10.000000 
Rope3_Seg08 0.000000 0.000000 0.000000 0.000000 0.000000 0.000000 10.000000 
Rope3_Seg09 0.000000 0.000000 0.000000 0.000000 0.000000 0.000000 10.000000 
R_rear_hand01 0.000000 0.000000 0.000000 0.000000 0.000000 0.000000 10.000000 
R_rear_hand02 0.000000 0.000000 0.000000 0.000000 0.000000 0.000000 10.000000 
R_rear_hand03 0.000000 0.000000 0.000000 0.000000 0.000000 0.000000 10.000000 
Rope4_Seg01 0.000000 0.000000 0.000000 0.000000 0.000000 0.000000 10.000000 
Rope4_Seg02 0.000000 0.000000 0.000000 0.000000 0.000000 0.000000 10.000000 
Rope4_Seg03 0.000000 0.000000 0.000000 0.000000 0.000000 0.000000 10.000000 
Rope4_Seg04 0.000000 0.000000 0.000000 0.000000 0.000000 0.000000 10.000000 
Rope4_Seg05 0.000000 0.000000 0.000000 0.000000 0.000000 0.000000 10.000000 
Rope4_Seg06 0.000000 0.000000 0.000000 0.000000 0.000000 0.000000 10.000000 
Rope4_Seg07 0.000000 0.000000 0.000000 0.000000 0.000000 0.000000 10.000000 
Rope4_Seg08 0.000000 0.000000 0.000000 0.000000 0.000000 0.000000 10.000000 
Rope4_Seg09 0.000000 0.000000 0.000000 0.000000 0.000000 0.000000 10.000000 
L_rear_hand01 0.000000 0.000000 0.000000 0.000000 0.000000 0.000000 10.000000 
L_rear_hand02 0.000000 0.000000 0.000000 0.000000 0.000000 0.000000 10.000000 
L_rear_hand03 0.000000 0.000000 0.000000 0.000000 0.000000 0.000000 10.000000 
#Beginning of Data. Separated by tabs
#Fr	Tx	Ty	Tz	Rx	Ry	Rz	SF
[MASTER]
182 3559.878174 2996.857178 -3904.128174 0.001346 0.001923 -20.001186 6074.216309
183 3669.675293 3183.987305 -4157.681152 0.001346 0.001923 -20.001186 6394.576172
[root]
182 -274.829254 -65.365501 3765.517090 -121.275307 -39.363369 -98.627983 3776.098877
183 -233.448380 -67.917259 3516.101318 -123.176315 -42.314281 -97.566765 3524.497070
[chest]
182 -84.512650 -34.090519 0.000000 44.239452 -29.287571 150.606949 91.129311
183 -84.512650 -34.090519 0.000000 42.905407 -31.591278 152.246826 91.129311
[L_mid_tent01]
182 27.298620 22.179527 -249.918808 -72.933563 74.016655 -46.671154 252.381760
183 27.298618 22.179529 -249.918808 -92.435570 75.337677 -67.981834 252.381760
[R_mid_tent01]
182 23.228794 24.509907 226.238495 139.235046 -35.515495 114.317612 228.744751
183 23.228794 24.509907 226.238495 138.226959 -36.507774 115.234993 228.744751
[spine01]
182 -0.361383 -0.195265 0.000000 -0.000001 -0.000007 22.052340 0.410763
183 -0.361383 -0.195265 0.000000 -0.000001 -0.000007 22.052340 0.410763
[Bip01_Neck]
182 165.484543 71.581718 0.000119 176.643677 -1.657967 43.431911 180.302734
183 165.484543 71.581718 0.000119 176.643677 -1.657967 43.431911 180.302734
[L_humerus]
182 -13.983130 -135.272980 -120.471481 102.675995 45.309040 -165.860565 181.680161
183 -13.983130 -135.272980 -120.471481 106.062309 50.418945 -163.724289 181.680161
[R_humerus]
182 -13.983309 -135.273102 125.287651 29.709066 -75.533699 66.963387 184.909012
183 -13.983309 -135.273102 125.287651 21.753632 -76.579842 75.211426 184.909012
[weapon_bone]
182 235.964890 -300.705902 0.000000 0.000000 -89.951546 -128.212341 382.234833
183 235.964890 -300.705902 0.000000 0.000000 -89.951546 -128.212341 382.234833
[Bip01_Head]
182 164.113098 158.462845 53.316650 19.261976 2.794991 -43.898327 234.278137
183 164.113083 158.462830 53.316650 23.448368 2.797775 -43.902058 234.278122
[eye_left_bone]
182 -24.626970 125.451866 -64.772606 0.000000 -90.000000 -99.840431 143.318359
183 -24.626970 125.451866 -64.772606 0.000000 -90.000000 -99.840431 143.318359
[eye_right_bone]
182 -24.626970 125.451866 64.327362 0.000000 -89.965736 80.156380 143.117676
183 -24.626970 125.451866 64.327362 0.000000 -89.965736 80.156380 143.117676
[L_forearm]
182 322.776093 0.000000 -0.000119 0.000004 0.002347 -89.783302 322.776093
183 322.776093 0.000000 -0.000119 0.000009 0.002347 -89.551491 322.776093
[L_front_hand]
182 241.149185 -0.042021 -3.300071 -2.368118 -1.553535 -6.435563 241.171753
183 241.149185 -0.042021 -3.300071 -1.665992 -1.678503 -6.185064 241.171753
[L_weapon_bone]
182 156.183838 0.000000 0.000000 0.000014 0.000007 0.000001 156.183838
183 156.183838 0.000000 0.000000 0.000014 0.000007 0.000001 156.183838
[L_front_hand01_01]
182 86.095154 20.947098 -0.655860 -0.366594 -0.477154 75.385574 88.609184
183 86.095154 20.947098 -0.655860 -0.366594 -0.477154 75.385574 88.609184
[L_front_hand02_01]
182 86.935165 -11.437475 24.513514 154.399796 -59.883835 -61.369587 91.046425
183 86.935165 -11.437475 24.513514 154.399796 -59.883835 -61.369587 91.046425
[L_front_hand03_01]
182 86.637497 -14.123976 -20.424902 -153.913849 58.118122 -62.702866 90.126129
183 86.637497 -14.123976 -20.424902 -153.913849 58.118122 -62.702866 90.126129
[L_front_hand01_02]
182 71.020905 -0.000179 0.000030 0.000334 -0.002323 -106.379684 71.020905
183 71.020905 -0.000179 0.000030 0.000334 -0.002323 -106.379684 71.020905
[L_front_hand02_02]
182 71.020927 -0.000119 0.000060 0.000334 -0.002323 -106.379684 71.020927
183 71.020927 -0.000119 0.000060 0.000334 -0.002323 -106.379684 71.020927
[L_front_hand03_02]
182 71.020905 -0.000060 0.000060 0.000334 -0.002323 -106.379684 71.020905
183 71.020905 -0.000060 0.000060 0.000334 -0.002323 -106.379684 71.020905
[R_forearm]
182 322.776428 -0.000060 0.000030 0.208152 -0.055020 -75.937332 322.776428
183 322.776428 -0.000060 0.000030 0.210417 -0.041477 -79.545151 322.776428
[R_front_hand]
182 238.847015 -0.006795 2.210259 42.936222 -10.646152 -26.312963 238.857239
183 238.847015 -0.006795 2.210259 42.936222 -10.646152 -26.312963 238.857239
[R_weapon_bone]
182 155.664093 0.002503 -0.000030 0.003487 0.001180 -90.988930 155.664078
183 155.664093 0.002503 -0.000030 0.003487 0.001180 -90.988930 155.664078
[R_front_hand01_01]
182 87.624611 14.231146 22.918642 -154.633499 -59.950619 61.746044 91.683487
183 87.624611 14.231146 22.918642 -154.633499 -59.950634 61.746063 91.683487
[R_front_hand02_01]
182 89.356956 14.367283 -19.491137 154.602661 58.302849 63.744389 92.579636
183 89.356956 14.367283 -19.491137 154.602661 58.302849 63.744389 92.579636
[R_front_hand03_01]
182 87.286232 -22.307278 -0.143439 0.162155 -0.423168 -75.767906 90.091743
183 87.286232 -22.307278 -0.143439 0.162155 -0.423168 -75.767921 90.091743
[R_front_hand01_02]
182 71.020905 0.000060 0.000119 0.002323 -0.000334 106.381714 71.020905
183 71.020905 0.000060 0.000119 0.002323 -0.000334 106.381714 71.020905
[R_front_hand02_02]
182 71.020844 -0.000030 -0.000119 0.002323 -0.000334 106.381714 71.020836
183 71.020844 -0.000030 -0.000119 0.002323 -0.000334 106.381714 71.020836
[R_front_hand03_02]
182 71.020905 0.000000 0.000030 0.002323 -0.000334 106.381714 71.020905
183 71.020905 0.000000 0.000030 0.002323 -0.000334 106.381714 71.020905
[null_rope01_connect]
182 328.732483 0.000000 -0.000238 -72.957039 37.154278 -128.502060 328.732483
183 328.732483 0.000000 -0.000238 -62.337982 38.723064 -121.731621 328.732483
[Rope1_Seg01]
182 -0.000019 0.000000 0.000000 -72.401253 -68.303993 -168.754471 0.000019
183 -0.000018 0.000000 0.000000 -79.732689 -70.361275 -163.225586 0.000018
[Rope1_Seg02]
182 139.999863 -0.000179 0.000000 1.408817 14.966215 -9.347089 139.999863
183 139.999863 -0.000179 0.000000 1.521705 13.589952 -8.437187 139.999863
[Rope1_Seg03]
182 139.999924 0.000060 -0.000060 -2.111675 22.100073 -15.366236 139.999924
183 139.999924 0.000060 -0.000060 -1.753274 21.777794 -15.058624 139.999924
[Rope1_Seg04]
182 139.999924 -0.000060 -0.000119 -3.180916 16.758913 -11.305472 139.999924
183 139.999924 -0.000060 -0.000119 -3.720491 18.941311 -12.469758 139.999924
[Rope1_Seg05]
182 139.999832 0.000119 -0.000060 -5.672131 17.689960 -14.564134 139.999832
183 139.999832 0.000119 -0.000060 -4.351688 15.380938 -12.593863 139.999832
[Rope1_Seg06]
182 139.999954 0.000119 -0.000060 -136.383804 38.224888 -35.741657 139.999954
183 139.999954 0.000119 -0.000060 -106.167671 34.499660 -34.500221 139.999954
[Rope1_Seg07]
182 139.999985 0.000060 0.000000 -28.916037 0.802507 23.260761 139.999985
183 139.999985 0.000060 0.000000 -59.064251 14.289197 22.919775 139.999985
[Rope1_Seg09]
182 121.602913 0.000119 -0.000089 -89.793175 -1.359789 0.847147 121.602913
183 121.602913 0.000119 -0.000089 -89.793175 -1.359789 0.847147 121.602913
[L_mid_hand01]
182 103.859421 1.038730 8.195221 130.544373 -67.584534 -38.866943 104.187431
183 103.859421 1.038730 8.195221 130.544373 -67.584534 -38.866943 104.187431
[L_mid_hand02]
182 105.572853 -4.139662 -10.864139 -168.923172 43.409309 -73.498886 106.211075
183 105.572853 -4.139662 -10.864139 -168.923172 43.409309 -73.498886 106.211075
[L_mid_hand03]
182 104.641464 17.579376 -3.913581 -6.012627 17.808174 74.893669 106.179977
183 104.641464 17.579376 -3.913581 -6.012627 17.808174 74.893669 106.179977
[null_rope02_connect]
182 328.732849 0.000179 -0.000119 -1.886186 86.138115 157.829178 328.732849
183 328.732849 0.000179 -0.000119 -6.982295 84.404198 150.771301 328.732849
[Rope2_Seg01]
182 0.000019 0.000000 0.000000 28.531721 70.496521 -38.025623 0.000019
183 0.000018 0.000000 0.000000 28.789040 73.470032 -37.759598 0.000018
[Rope2_Seg02]
182 139.999741 -0.000060 -0.000119 -0.389839 11.714172 0.254967 139.999756
183 139.999741 -0.000060 -0.000119 -0.532627 10.332886 0.132242 139.999756
[Rope2_Seg03]
182 140.000107 0.000030 0.000000 -1.290590 11.120984 0.303351 140.000107
183 140.000107 0.000030 0.000000 -1.240890 9.903098 0.211845 140.000107
[Rope2_Seg04]
182 139.999802 0.000000 -0.000060 -1.576990 8.221606 0.180794 139.999802
183 139.999802 0.000000 -0.000060 -1.382760 7.548544 -0.099606 139.999802
[Rope2_Seg05]
182 139.999985 -0.000060 0.000119 -2.649199 8.572162 0.829913 139.999985
183 139.999985 -0.000060 0.000119 -2.247725 7.518203 0.617335 139.999985
[Rope2_Seg06]
182 139.999893 -0.000030 -0.000119 -4.646678 9.669866 1.809090 139.999893
183 139.999893 -0.000030 -0.000119 -4.120660 8.633749 1.849605 139.999893
[Rope2_Seg07]
182 139.999893 0.000060 -0.000060 -5.412390 7.686427 2.168914 139.999893
183 139.999893 0.000060 -0.000060 -5.374959 7.691996 2.508775 139.999893
[Rope2_Seg09]
182 121.338966 0.000089 -0.000060 33.793236 -1.359788 -0.847141 121.338966
183 121.338966 0.000089 -0.000060 33.793236 -1.359788 -0.847141 121.338966
[R_mid_hand01]
182 104.680779 11.144459 -10.335981 -16.212063 45.237247 70.462852 105.778534
183 104.680779 11.144459 -10.335981 -16.212063 45.237247 70.462852 105.778534
[R_mid_hand02]
182 104.070427 2.443552 8.231699 49.067368 -67.749771 39.286453 104.424065
183 104.070427 2.443552 8.231699 49.067368 -67.749771 39.286453 104.424065
[R_mid_hand03]
182 106.028137 -11.221827 -5.996406 -177.101105 15.551026 -76.585571 106.788818
183 106.028137 -11.221827 -5.996406 -177.101105 15.551026 -76.585571 106.788818
[spine02]
182 129.756927 0.001550 0.000119 0.362755 -4.044558 -12.991353 129.756927
183 129.756927 0.001550 0.000119 0.362421 -4.044589 -12.981879 129.756927
[spine03]
182 78.613892 0.081750 -4.898996 1.898871 3.830377 16.521578 78.766426
183 78.613892 0.081752 -4.898995 1.898185 3.830584 16.512321 78.766426
[pelvis]
182 169.435242 0.051022 0.000000 -0.060611 -0.180176 14.180397 169.435257
183 169.435242 0.051022 0.000000 -0.060583 -0.180186 14.162677 169.435257
[null_rope03_connect]
182 -1.257226 -2.466202 137.391083 -119.055267 -37.249336 -157.619263 137.418976
183 -1.257226 -2.466202 137.391083 -118.788277 -35.804077 -154.817505 137.418976
[null_rope04_connect]
182 -1.259640 -2.480268 -137.844437 -119.055267 -37.249336 -157.619263 137.872513
183 -1.259640 -2.480268 -137.844437 -118.788277 -35.804077 -154.817505 137.872513
[Rope3_Seg01]
182 0.000000 0.000134 0.000000 31.242455 -37.530666 -96.687134 0.000134
183 0.000000 0.000135 0.000000 35.013195 -40.436283 -100.414848 0.000135
[Rope3_Seg02]
182 139.999924 -0.000119 0.000060 -1.406085 17.099585 8.637190 139.999924
183 139.999924 -0.000119 0.000060 -1.903974 18.915016 9.288932 139.999924
[Rope3_Seg03]
182 139.999924 -0.000119 0.000119 3.378748 20.688633 14.621022 139.999924
183 139.999924 -0.000119 0.000119 3.764920 21.189569 16.768167 139.999924
[Rope3_Seg04]
182 139.999924 0.000119 0.000000 3.314207 12.447849 10.239887 139.999924
183 139.999924 0.000119 0.000000 3.420420 12.449691 9.937030 139.999924
[Rope3_Seg05]
182 139.999924 -0.000238 0.000060 20.578279 28.295155 3.425967 139.999924
183 139.999924 -0.000238 0.000060 23.538973 34.495365 -4.610755 139.999924
[Rope3_Seg06]
182 139.999893 -0.000119 -0.000060 38.756138 49.490414 -22.648485 139.999893
183 139.999893 -0.000119 -0.000060 17.496189 42.794365 -40.763306 139.999893
[Rope3_Seg07]
182 139.999771 0.000060 -0.000119 7.659811 7.198289 -15.394238 139.999771
183 139.999771 0.000060 -0.000119 3.265341 6.165624 -13.804083 139.999771
[Rope3_Seg08]
182 139.999985 -0.000060 0.000000 2.511003 1.822971 -6.016670 139.999985
183 139.999985 -0.000060 0.000000 1.211857 1.918173 -5.178421 139.999985
[Rope3_Seg09]
182 90.185997 -0.000179 -0.000060 89.793228 -1.359877 -0.847183 90.185997
183 90.185997 -0.000179 -0.000060 89.793228 -1.359877 -0.847183 90.185997
[R_rear_hand01]
182 103.366196 -6.073594 -10.757982 -177.714203 24.565960 -73.910950 104.101845
183 103.366196 -6.073594 -10.757982 -177.714203 24.565960 -73.910950 104.101845
[R_rear_hand02]
182 100.509819 12.039542 -7.992327 -12.874829 36.868488 72.167213 101.543350
183 100.509819 12.039542 -7.992327 -12.874829 36.868488 72.167213 101.543350
[R_rear_hand03]
182 101.539970 5.215704 5.435467 71.484581 -71.816628 21.513813 101.819031
183 101.539970 5.215704 5.435467 71.484581 -71.816628 21.513813 101.819031
[Rope4_Seg01]
182 -0.000268 0.000000 0.000000 28.696751 -67.938133 111.018692 0.000268
183 -0.000270 0.000000 0.000000 33.022522 -62.105762 105.939072 0.000270
[Rope4_Seg02]
182 139.999985 0.000060 0.000119 -0.221708 -2.807018 -5.634866 139.999985
183 139.999985 0.000060 0.000119 -0.126177 -2.152822 -5.315475 139.999985
[Rope4_Seg03]
182 139.999924 0.000000 -0.000238 -1.038127 -4.605974 -9.441380 139.999924
183 139.999924 0.000000 -0.000238 -0.809980 -3.640337 -9.116993 139.999924
[Rope4_Seg04]
182 139.999985 0.000000 0.000119 -2.956483 -11.736789 -15.862252 139.999985
183 139.999985 0.000000 0.000119 -3.316954 -9.350090 -17.561571 139.999985
[Rope4_Seg05]
182 139.999802 -0.000060 -0.000119 0.680390 -21.292227 -11.732998 139.999802
183 139.999802 -0.000060 -0.000119 -3.036541 -24.233643 -18.549761 139.999802
[Rope4_Seg06]
182 139.999924 0.000000 0.000060 -26.662687 -1.407186 -15.980678 139.999924
183 139.999924 0.000000 0.000060 -29.061571 -0.502318 -17.053535 139.999924
[Rope4_Seg07]
182 139.999802 0.000000 0.000000 -80.845207 48.899307 -78.968910 139.999802
183 139.999802 0.000000 0.000000 -65.961823 57.762829 -60.055321 139.999802
[Rope4_Seg08]
182 139.999924 0.000000 0.000119 3.872535 32.269257 1.525020 139.999924
183 139.999924 0.000000 0.000119 4.762951 36.320381 4.570484 139.999924
[Rope4_Seg09]
182 90.185791 0.000060 0.000060 -135.617828 2.228885 0.850567 90.185791
183 90.185791 0.000060 0.000060 -135.617828 2.228885 0.850567 90.185791
[L_rear_hand01]
182 101.696655 -8.392275 -7.654577 -12.874829 -36.868488 107.832764 102.329041
183 101.696655 -8.392275 -7.654577 -12.874829 -36.868488 107.832764 102.329041
[L_rear_hand02]
182 102.726799 -1.568258 5.773216 71.484581 71.816628 158.486160 102.900848
183 102.726799 -1.568258 5.773216 71.484581 71.816628 158.486160 102.900848
[L_rear_hand03]
182 104.552910 9.721220 -10.420293 -177.714203 -24.565960 -106.089035 105.519653
183 104.552910 9.721220 -10.420293 -177.714203 -24.565960 -106.089035 105.519653
